<svg width="1920" height="1080" fill="none" xmlns="http://www.w3.org/2000/svg"><path d="M1920 0H0v1080h1920V0Z" fill="#FAE7AE"/><rect x="182.593" y="191.074" width="399.298" height="159.298" rx="8.074" fill="#F3CF62" stroke="#D7AF35" stroke-width=".702"/><path d="M286.198 293.747c-4.693 0-8.533-1.238-11.52-3.712-2.944-2.518-4.757-5.952-5.44-10.304l7.04-1.536c.384 2.56 1.408 4.693 3.072 6.4 1.664 1.664 3.968 2.496 6.912 2.496 2.646 0 4.779-.619 6.4-1.856 1.622-1.238 2.432-2.902 2.432-4.992 0-2.134-.725-3.755-2.176-4.864-1.408-1.152-3.733-2.219-6.976-3.2l-3.84-1.152a21.705 21.705 0 0 1-5.376-2.368 12.75 12.75 0 0 1-4.032-4.096c-1.024-1.707-1.536-3.798-1.536-6.272 0-2.262.576-4.331 1.728-6.208 1.152-1.878 2.816-3.371 4.992-4.48 2.176-1.152 4.779-1.728 7.808-1.728 4.736 0 8.363 1.173 10.88 3.52 2.56 2.304 4.032 5.226 4.416 8.768l-6.656 1.024c-.426-2.091-1.344-3.734-2.752-4.928-1.365-1.238-3.306-1.856-5.824-1.856-2.176 0-4.01.554-5.504 1.664-1.45 1.109-2.176 2.474-2.176 4.096 0 1.706.662 3.114 1.984 4.224 1.366 1.066 3.435 2.048 6.208 2.944l3.52 1.024c2.39.725 4.502 1.642 6.336 2.752 1.878 1.066 3.328 2.474 4.352 4.224 1.067 1.749 1.6 4.01 1.6 6.784 0 2.986-.725 5.482-2.176 7.488-1.408 2.005-3.328 3.541-5.76 4.608-2.389 1.024-5.034 1.536-7.936 1.536Zm38.631 0c-3.114 0-5.866-.704-8.256-2.112-2.389-1.451-4.245-3.478-5.568-6.08-1.322-2.603-1.984-5.654-1.984-9.152 0-3.499.683-6.55 2.048-9.152 1.366-2.603 3.243-4.608 5.632-6.016 2.432-1.451 5.227-2.176 8.384-2.176 3.926 0 7.19.96 9.792 2.88 2.646 1.92 4.267 4.608 4.864 8.064l-6.656 1.088c-.426-1.75-1.365-3.136-2.816-4.16-1.408-1.067-3.178-1.6-5.312-1.6-2.56 0-4.736.96-6.528 2.88-1.749 1.92-2.624 4.65-2.624 8.192 0 3.541.875 6.272 2.624 8.192 1.75 1.877 3.926 2.816 6.528 2.816 2.176 0 3.926-.512 5.248-1.536 1.323-1.067 2.304-2.582 2.944-4.544l6.4 1.536c-.768 3.2-2.389 5.824-4.864 7.872-2.474 2.005-5.76 3.008-9.856 3.008Zm27.175-1.024v-32.64h6.464v5.504h.384c.939-2.048 2.304-3.648 4.096-4.8 1.835-1.152 4.011-1.728 6.528-1.728 1.238 0 2.39.106 3.456.32 1.11.17 2.006.469 2.688.896v7.168c-1.024-.555-2.176-1.003-3.456-1.344-1.237-.342-2.602-.512-4.096-.512-2.901 0-5.162 1.002-6.784 3.008-1.621 1.962-2.432 4.437-2.432 7.424v16.704h-6.848Zm49.511 1.024c-3.285 0-6.122-.726-8.512-2.176-2.346-1.451-4.181-3.478-5.504-6.08-1.28-2.603-1.92-5.611-1.92-9.024 0-3.456.662-6.486 1.984-9.088 1.366-2.646 3.243-4.694 5.632-6.144 2.432-1.451 5.206-2.176 8.32-2.176 4.907 0 8.64 1.408 11.2 4.224 2.56 2.773 3.84 6.549 3.84 11.328 0 1.152-.064 2.24-.192 3.264h-24.128c.214 3.157 1.174 5.568 2.88 7.232 1.75 1.664 3.968 2.496 6.656 2.496 2.176 0 3.904-.491 5.184-1.472 1.28-1.024 2.198-2.283 2.752-3.776l5.952 1.6c-.896 2.944-2.538 5.312-4.928 7.104-2.346 1.792-5.418 2.688-9.216 2.688Zm0-28.928c-2.261 0-4.181.661-5.76 1.984-1.578 1.322-2.645 3.306-3.2 5.952h17.28c-.128-2.39-.896-4.31-2.304-5.76-1.408-1.451-3.413-2.176-6.016-2.176Zm38.375 28.928c-3.285 0-6.122-.726-8.512-2.176-2.346-1.451-4.181-3.478-5.504-6.08-1.28-2.603-1.92-5.611-1.92-9.024 0-3.456.662-6.486 1.984-9.088 1.366-2.646 3.243-4.694 5.632-6.144 2.432-1.451 5.206-2.176 8.32-2.176 4.907 0 8.64 1.408 11.2 4.224 2.56 2.773 3.84 6.549 3.84 11.328 0 1.152-.064 2.24-.192 3.264H430.61c.214 3.157 1.174 5.568 2.88 7.232 1.75 1.664 3.968 2.496 6.656 2.496 2.176 0 3.904-.491 5.184-1.472 1.28-1.024 2.198-2.283 2.752-3.776l5.952 1.6c-.896 2.944-2.538 5.312-4.928 7.104-2.346 1.792-5.418 2.688-9.216 2.688Zm0-28.928c-2.261 0-4.181.661-5.76 1.984-1.578 1.322-2.645 3.306-3.2 5.952h17.28c-.128-2.39-.896-4.31-2.304-5.76-1.408-1.451-3.413-2.176-6.016-2.176Zm24.167 27.904v-32.64h6.464v4.096h.384c.854-1.536 2.155-2.774 3.904-3.712 1.792-.939 3.755-1.408 5.888-1.408 3.67 0 6.507 1.109 8.512 3.328 2.006 2.218 3.008 5.269 3.008 9.152v21.184h-6.784v-20.288c0-2.39-.618-4.16-1.856-5.312-1.237-1.152-2.837-1.728-4.8-1.728-2.389 0-4.309.874-5.76 2.624-1.408 1.749-2.112 3.84-2.112 6.272v18.432h-6.848Z" fill="#000"/><rect x="1003.61" y="698.628" width="399.298" height="159.298" rx="8.074" fill="#F3CF62" stroke="#D7AF35" stroke-width=".702"/><path d="M1088.21 801.301c-4.69 0-8.53-1.237-11.52-3.712-2.94-2.517-4.75-5.952-5.44-10.304l7.04-1.536c.39 2.56 1.41 4.694 3.08 6.4 1.66 1.664 3.96 2.496 6.91 2.496 2.64 0 4.78-.618 6.4-1.856 1.62-1.237 2.43-2.901 2.43-4.992 0-2.133-.73-3.754-2.18-4.864-1.4-1.152-3.73-2.218-6.97-3.2l-3.84-1.152a21.793 21.793 0 0 1-5.38-2.368 12.734 12.734 0 0 1-4.03-4.096c-1.02-1.706-1.54-3.797-1.54-6.272 0-2.261.58-4.33 1.73-6.208 1.15-1.877 2.82-3.37 4.99-4.48 2.18-1.152 4.78-1.728 7.81-1.728 4.74 0 8.36 1.174 10.88 3.52 2.56 2.304 4.03 5.227 4.42 8.768l-6.66 1.024c-.42-2.09-1.34-3.733-2.75-4.928-1.37-1.237-3.31-1.856-5.82-1.856-2.18 0-4.01.555-5.51 1.664-1.45 1.11-2.17 2.475-2.17 4.096 0 1.707.66 3.115 1.98 4.224 1.37 1.067 3.43 2.048 6.21 2.944l3.52 1.024c2.39.726 4.5 1.643 6.33 2.752 1.88 1.067 3.33 2.475 4.36 4.224 1.06 1.75 1.6 4.011 1.6 6.784 0 2.987-.73 5.483-2.18 7.488-1.41 2.006-3.33 3.542-5.76 4.608-2.39 1.024-5.03 1.536-7.94 1.536Zm38.57 0c-3.28 0-6.12-.725-8.51-2.176-2.35-1.45-4.18-3.477-5.51-6.08-1.28-2.602-1.92-5.61-1.92-9.024 0-3.456.67-6.485 1.99-9.088 1.36-2.645 3.24-4.693 5.63-6.144 2.43-1.45 5.21-2.176 8.32-2.176 4.91 0 8.64 1.408 11.2 4.224 2.56 2.774 3.84 6.55 3.84 11.328 0 1.152-.06 2.24-.19 3.264h-24.13c.21 3.158 1.17 5.568 2.88 7.232 1.75 1.664 3.97 2.496 6.66 2.496 2.17 0 3.9-.49 5.18-1.472 1.28-1.024 2.2-2.282 2.75-3.776l5.95 1.6c-.89 2.944-2.53 5.312-4.92 7.104-2.35 1.792-5.42 2.688-9.22 2.688Zm0-28.928c-2.26 0-4.18.662-5.76 1.984-1.58 1.323-2.64 3.307-3.2 5.952h17.28c-.13-2.389-.9-4.309-2.3-5.76-1.41-1.45-3.42-2.176-6.02-2.176Zm27.24 27.904v-32.64h6.46v5.504h.39c.94-2.048 2.3-3.648 4.09-4.8 1.84-1.152 4.01-1.728 6.53-1.728 1.24 0 2.39.107 3.46.32 1.11.171 2 .47 2.69.896v7.168a15.977 15.977 0 0 0-3.46-1.344c-1.24-.341-2.6-.512-4.1-.512-2.9 0-5.16 1.003-6.78 3.008-1.62 1.963-2.43 4.438-2.43 7.424v16.704h-6.85Zm45.54 0-13.69-32.64h7.48l9.6 23.872h.32l9.6-23.872h7.36l-13.82 32.64h-6.85Zm41.9-38.784c-1.5 0-2.75-.512-3.78-1.536-1.02-1.024-1.53-2.282-1.53-3.776 0-1.45.51-2.688 1.53-3.712 1.03-1.024 2.28-1.536 3.78-1.536 1.49 0 2.75.512 3.77 1.536 1.03 1.024 1.54 2.262 1.54 3.712 0 1.494-.51 2.752-1.54 3.776-1.02 1.024-2.28 1.536-3.77 1.536Zm-14.66 38.784v-6.208h11.2v-20.224h-9.28v-6.208h16.13v26.432h11.26v6.208h-29.31Zm53.54 1.024c-3.11 0-5.86-.704-8.25-2.112-2.39-1.45-4.25-3.477-5.57-6.08-1.32-2.602-1.98-5.653-1.98-9.152 0-3.498.68-6.549 2.04-9.152 1.37-2.602 3.25-4.608 5.64-6.016 2.43-1.45 5.22-2.176 8.38-2.176 3.93 0 7.19.96 9.79 2.88 2.65 1.92 4.27 4.608 4.87 8.064l-6.66 1.088c-.43-1.749-1.36-3.136-2.82-4.16-1.4-1.066-3.17-1.6-5.31-1.6-2.56 0-4.73.96-6.53 2.88-1.74 1.92-2.62 4.651-2.62 8.192 0 3.542.88 6.272 2.62 8.192 1.75 1.878 3.93 2.816 6.53 2.816 2.18 0 3.93-.512 5.25-1.536 1.32-1.066 2.3-2.581 2.94-4.544l6.4 1.536c-.76 3.2-2.38 5.824-4.86 7.872-2.47 2.006-5.76 3.008-9.86 3.008Zm38.32 0c-3.29 0-6.13-.725-8.52-2.176-2.34-1.45-4.18-3.477-5.5-6.08-1.28-2.602-1.92-5.61-1.92-9.024 0-3.456.66-6.485 1.98-9.088 1.37-2.645 3.25-4.693 5.64-6.144 2.43-1.45 5.2-2.176 8.32-2.176 4.9 0 8.64 1.408 11.2 4.224 2.56 2.774 3.84 6.55 3.84 11.328 0 1.152-.07 2.24-.2 3.264h-24.12c.21 3.158 1.17 5.568 2.88 7.232 1.75 1.664 3.96 2.496 6.65 2.496 2.18 0 3.91-.49 5.19-1.472a8.631 8.631 0 0 0 2.75-3.776l5.95 1.6c-.9 2.944-2.54 5.312-4.93 7.104-2.34 1.792-5.42 2.688-9.21 2.688Zm0-28.928c-2.27 0-4.19.662-5.76 1.984-1.58 1.323-2.65 3.307-3.2 5.952h17.28c-.13-2.389-.9-4.309-2.31-5.76-1.41-1.45-3.41-2.176-6.01-2.176Z" fill="#000"/><rect x="1338.11" y="274.047" width="399.298" height="159.298" rx="8.074" fill="#F3CF62" stroke="#D7AF35" stroke-width=".702"/><path d="M1389.19 375.696v-45.824h29.5v6.656h-22.53v12.8h20.55v6.656h-20.55v19.712h-6.97Zm52.64-38.784c-1.49 0-2.75-.512-3.77-1.536-1.03-1.024-1.54-2.283-1.54-3.776 0-1.451.51-2.688 1.54-3.712 1.02-1.024 2.28-1.536 3.77-1.536 1.5 0 2.75.512 3.78 1.536 1.02 1.024 1.53 2.261 1.53 3.712 0 1.493-.51 2.752-1.53 3.776-1.03 1.024-2.28 1.536-3.78 1.536Zm-14.65 38.784v-6.208h11.2v-20.224h-9.28v-6.208h16.12v26.432h11.27v6.208h-29.31Zm42.34 0v-32.64h6.46v5.504h.39c.94-2.048 2.3-3.648 4.09-4.8 1.84-1.152 4.01-1.728 6.53-1.728 1.24 0 2.39.106 3.46.32 1.11.17 2 .469 2.69.896v7.168c-1.03-.555-2.18-1.003-3.46-1.344-1.24-.342-2.6-.512-4.1-.512-2.9 0-5.16 1.002-6.78 3.008-1.62 1.962-2.43 4.437-2.43 7.424v16.704h-6.85Zm49.51 1.024c-3.28 0-6.12-.726-8.51-2.176-2.35-1.451-4.18-3.478-5.51-6.08-1.28-2.603-1.92-5.611-1.92-9.024 0-3.456.67-6.486 1.99-9.088 1.36-2.646 3.24-4.694 5.63-6.144 2.43-1.451 5.21-2.176 8.32-2.176 4.91 0 8.64 1.408 11.2 4.224 2.56 2.773 3.84 6.549 3.84 11.328 0 1.152-.06 2.24-.19 3.264h-24.13c.21 3.157 1.17 5.568 2.88 7.232 1.75 1.664 3.97 2.496 6.66 2.496 2.17 0 3.9-.491 5.18-1.472 1.28-1.024 2.2-2.283 2.75-3.776l5.95 1.6c-.89 2.944-2.53 5.312-4.92 7.104-2.35 1.792-5.42 2.688-9.22 2.688Zm0-28.928c-2.26 0-4.18.661-5.76 1.984-1.58 1.322-2.64 3.306-3.2 5.952h17.28c-.13-2.39-.9-4.31-2.3-5.76-1.41-1.451-3.42-2.176-6.02-2.176Zm39.08 28.928c-2.43 0-4.5-.512-6.21-1.536-1.66-1.024-2.94-2.219-3.84-3.584h-.38v4.096h-6.4v-45.824h6.78v12.672l-.38 4.608h.38c.81-1.28 2.07-2.454 3.78-3.52 1.75-1.067 3.84-1.6 6.27-1.6 2.82 0 5.31.704 7.49 2.112 2.22 1.408 3.94 3.413 5.18 6.016 1.24 2.56 1.86 5.632 1.86 9.216 0 3.584-.62 6.677-1.86 9.28-1.24 2.56-2.96 4.544-5.18 5.952-2.18 1.408-4.67 2.112-7.49 2.112Zm-1.34-6.336c2.6 0 4.75-.939 6.46-2.816 1.75-1.92 2.62-4.651 2.62-8.192 0-3.542-.87-6.251-2.62-8.128-1.71-1.92-3.86-2.88-6.46-2.88-2.61 0-4.78.96-6.53 2.88-1.71 1.877-2.56 4.586-2.56 8.128 0 3.541.85 6.272 2.56 8.192 1.75 1.877 3.92 2.816 6.53 2.816Zm37.09 6.336c-2.82 0-5.31-.683-7.49-2.048-2.17-1.408-3.9-3.414-5.18-6.016-1.24-2.603-1.86-5.696-1.86-9.28 0-3.627.64-6.72 1.92-9.28 1.28-2.603 3.03-4.587 5.25-5.952 2.22-1.408 4.72-2.112 7.49-2.112 2.47 0 4.54.49 6.21 1.472 1.66.938 2.9 2.154 3.71 3.648h.38v-4.096h6.4v32.64h-6.4V371.6h-.38c-.9 1.322-2.18 2.517-3.84 3.584-1.62 1.024-3.69 1.536-6.21 1.536Zm1.34-6.336c2.61 0 4.76-.939 6.47-2.816 1.75-1.878 2.62-4.608 2.62-8.192 0-3.584-.87-6.315-2.62-8.192-1.71-1.878-3.86-2.816-6.47-2.816-2.6 0-4.77.938-6.52 2.816-1.71 1.877-2.56 4.608-2.56 8.192 0 3.584.85 6.314 2.56 8.192 1.75 1.877 3.92 2.816 6.52 2.816Zm38.64 6.336c-4.27 0-7.56-.939-9.86-2.816-2.3-1.878-3.8-4.352-4.48-7.424l6.59-1.216c.39 1.578 1.2 2.88 2.43 3.904 1.28.981 3.05 1.472 5.32 1.472 1.92 0 3.54-.342 4.86-1.024 1.37-.726 2.05-1.771 2.05-3.136 0-1.323-.58-2.347-1.73-3.072-1.11-.726-2.75-1.302-4.93-1.728l-3.97-.704c-2.73-.47-4.97-1.472-6.72-3.008s-2.62-3.648-2.62-6.336c0-1.878.55-3.52 1.66-4.928 1.11-1.451 2.61-2.582 4.48-3.392 1.92-.854 4.1-1.28 6.53-1.28 3.59 0 6.51.725 8.77 2.176 2.3 1.45 3.75 3.733 4.35 6.848l-6.08 1.088c-.51-1.622-1.38-2.752-2.62-3.392-1.24-.683-2.69-1.024-4.35-1.024-1.71 0-3.16.362-4.36 1.088-1.19.682-1.79 1.557-1.79 2.624 0 1.152.47 2.069 1.41 2.752.98.64 2.39 1.13 4.22 1.472l4.74.832c3.2.554 5.63 1.578 7.3 3.072 1.66 1.45 2.49 3.69 2.49 6.72 0 2.09-.6 3.925-1.79 5.504-1.19 1.578-2.84 2.794-4.93 3.648-2.09.853-4.41 1.28-6.97 1.28Zm38.69 0c-3.28 0-6.12-.726-8.51-2.176-2.35-1.451-4.18-3.478-5.51-6.08-1.28-2.603-1.92-5.611-1.92-9.024 0-3.456.67-6.486 1.99-9.088 1.36-2.646 3.24-4.694 5.63-6.144 2.43-1.451 5.21-2.176 8.32-2.176 4.91 0 8.64 1.408 11.2 4.224 2.56 2.773 3.84 6.549 3.84 11.328 0 1.152-.06 2.24-.19 3.264h-24.13c.21 3.157 1.17 5.568 2.88 7.232 1.75 1.664 3.97 2.496 6.66 2.496 2.17 0 3.9-.491 5.18-1.472 1.28-1.024 2.2-2.283 2.75-3.776l5.95 1.6c-.89 2.944-2.53 5.312-4.92 7.104-2.35 1.792-5.42 2.688-9.22 2.688Zm0-28.928c-2.26 0-4.18.661-5.76 1.984-1.58 1.322-2.64 3.306-3.2 5.952h17.28c-.13-2.39-.9-4.31-2.3-5.76-1.41-1.451-3.42-2.176-6.02-2.176Z" fill="#000"/><rect x="182.742" y="707.777" width="399" height="159" rx="11.5" fill="#F3CF62" stroke="#D7AF35"/><path d="m224.282 809.277-14.208-45.824h7.68l8.96 30.208 1.28 4.992h.384l1.344-4.992 9.344-30.208h7.744l-14.72 45.824h-7.808Zm42.535-38.784c-1.493 0-2.752-.512-3.776-1.536s-1.536-2.282-1.536-3.776c0-1.45.512-2.688 1.536-3.712s2.283-1.536 3.776-1.536c1.494 0 2.752.512 3.776 1.536s1.536 2.262 1.536 3.712c0 1.494-.512 2.752-1.536 3.776s-2.282 1.536-3.776 1.536Zm-14.656 38.784v-6.208h11.2v-20.224h-9.28v-6.208h16.128v26.432h11.264v6.208h-29.312Zm53.479 1.024c-3.285 0-6.122-.725-8.512-2.176-2.346-1.45-4.181-3.477-5.504-6.08-1.28-2.602-1.92-5.61-1.92-9.024 0-3.456.662-6.485 1.984-9.088 1.366-2.645 3.243-4.693 5.632-6.144 2.432-1.45 5.206-2.176 8.32-2.176 4.907 0 8.64 1.408 11.2 4.224 2.56 2.774 3.84 6.55 3.84 11.328 0 1.152-.064 2.24-.192 3.264H296.36c.214 3.158 1.174 5.568 2.88 7.232 1.75 1.664 3.968 2.496 6.656 2.496 2.176 0 3.904-.49 5.184-1.472 1.28-1.024 2.198-2.282 2.752-3.776l5.952 1.6c-.896 2.944-2.538 5.312-4.928 7.104-2.346 1.792-5.418 2.688-9.216 2.688Zm0-28.928c-2.261 0-4.181.662-5.76 1.984-1.578 1.323-2.645 3.307-3.2 5.952h17.28c-.128-2.389-.896-4.309-2.304-5.76-1.408-1.45-3.413-2.176-6.016-2.176Zm25.127 27.904-5.568-32.64h6.4l3.328 22.144h.256l5.12-22.144h6.528l5.184 22.144h.256l3.264-22.144h6.272l-5.568 32.64h-7.424l-4.864-20.736-.384-2.624h-.256l-.384 2.624-4.8 20.736h-7.36Zm34.279 0v-45.824h9.28l7.424 27.328h.384l7.424-27.328h9.28v45.824h-6.656v-25.152l.384-8.128h-.384l-7.296 26.88h-5.888l-7.296-26.88h-.384l.32 8.128v25.152h-6.592Zm55.271 1.024c-3.328 0-6.229-.725-8.704-2.176-2.432-1.493-4.309-3.541-5.632-6.144-1.322-2.645-1.984-5.653-1.984-9.024 0-3.413.662-6.421 1.984-9.024 1.323-2.602 3.2-4.629 5.632-6.08 2.475-1.493 5.376-2.24 8.704-2.24 3.328 0 6.208.747 8.64 2.24 2.475 1.451 4.374 3.478 5.696 6.08 1.323 2.603 1.984 5.611 1.984 9.024 0 3.414-.661 6.422-1.984 9.024-1.322 2.603-3.221 4.651-5.696 6.144-2.432 1.451-5.312 2.176-8.64 2.176Zm0-6.336c2.774 0 5.056-.938 6.848-2.816 1.792-1.92 2.688-4.65 2.688-8.192 0-3.541-.896-6.25-2.688-8.128-1.792-1.92-4.074-2.88-6.848-2.88-2.773 0-5.056.96-6.848 2.88-1.792 1.878-2.688 4.587-2.688 8.128 0 3.542.896 6.272 2.688 8.192 1.792 1.878 4.075 2.816 6.848 2.816Zm36.903 6.336c-2.816 0-5.312-.682-7.488-2.048-2.176-1.408-3.904-3.413-5.184-6.016-1.237-2.602-1.856-5.696-1.856-9.28 0-3.626.64-6.72 1.92-9.28 1.28-2.602 3.03-4.586 5.248-5.952 2.219-1.408 4.715-2.112 7.488-2.112 2.475 0 4.544.491 6.208 1.472 1.664.939 2.902 2.155 3.712 3.648h.384l-.384-4.672v-12.608h6.784v45.824h-6.4v-4.096h-.384c-.896 1.323-2.176 2.518-3.84 3.584-1.621 1.024-3.69 1.536-6.208 1.536Zm1.344-6.336c2.603 0 4.758-.938 6.464-2.816 1.75-1.877 2.624-4.608 2.624-8.192 0-3.584-.874-6.314-2.624-8.192-1.706-1.877-3.861-2.816-6.464-2.816-2.602 0-4.778.939-6.528 2.816-1.706 1.878-2.56 4.608-2.56 8.192 0 3.584.854 6.315 2.56 8.192 1.75 1.878 3.926 2.816 6.528 2.816Zm38.951 6.336c-3.285 0-6.122-.725-8.512-2.176-2.346-1.45-4.181-3.477-5.504-6.08-1.28-2.602-1.92-5.61-1.92-9.024 0-3.456.662-6.485 1.984-9.088 1.366-2.645 3.243-4.693 5.632-6.144 2.432-1.45 5.206-2.176 8.32-2.176 4.907 0 8.64 1.408 11.2 4.224 2.56 2.774 3.84 6.55 3.84 11.328 0 1.152-.064 2.24-.192 3.264h-24.128c.214 3.158 1.174 5.568 2.88 7.232 1.75 1.664 3.968 2.496 6.656 2.496 2.176 0 3.904-.49 5.184-1.472 1.28-1.024 2.198-2.282 2.752-3.776l5.952 1.6c-.896 2.944-2.538 5.312-4.928 7.104-2.346 1.792-5.418 2.688-9.216 2.688Zm0-28.928c-2.261 0-4.181.662-5.76 1.984-1.578 1.323-2.645 3.307-3.2 5.952h17.28c-.128-2.389-.896-4.309-2.304-5.76-1.408-1.45-3.413-2.176-6.016-2.176Zm23.271 27.904v-6.208h11.2v-33.408h-9.28v-6.208h16.128v39.616h11.264v6.208h-29.312Z" fill="#000"/><path d="M269.242 402.866a2 2 0 0 0-4 0h4Zm-3.414 189.405a2 2 0 0 0 2.828 0l12.728-12.728a2 2 0 1 0-2.828-2.828l-11.314 11.314-11.314-11.314a2 2 0 1 0-2.828 2.828l12.728 12.728Zm-.586-189.405v187.991h4V402.866h-4ZM495.742 646.133a2 2 0 0 0 4 0h-4Zm3.414-189.405a2 2 0 0 0-2.828 0L483.6 469.456a2 2 0 1 0 2.828 2.828l11.314-11.313 11.314 11.313a2 2 0 1 0 2.828-2.828l-12.728-12.728Zm.586 189.405v-5.222h-4v5.222h4Zm0-15.666v-10.444h-4v10.444h4Zm0-20.888v-10.443h-4v10.443h4Zm0-20.887v-10.444h-4v10.444h4Zm0-20.888V557.36h-4v10.444h4Zm0-20.888v-10.444h-4v10.444h4Zm0-20.888v-10.444h-4v10.444h4Zm0-20.888v-10.444h-4v10.444h4Zm0-20.888v-10.444h-4v10.444h4Zm0-20.888v-5.222h-4v5.222h4Z" fill="#212121"/><path d="M939.836 749.277a2 2 0 1 0 0-4v4Zm-295.582-3.414a2 2 0 0 0 0 2.829l12.728 12.727a2 2 0 1 0 2.828-2.828l-11.314-11.314 11.314-11.313a2 2 0 0 0-2.828-2.829l-12.728 12.728Zm1.414 3.414h5.657v-4h-5.657v4Zm16.971 0h11.314v-4h-11.314v4Zm22.629 0h11.314v-4h-11.314v4Zm22.628 0h11.314v-4h-11.314v4Zm22.628 0h11.314v-4h-11.314v4Zm22.628 0h11.315v-4h-11.315v4Zm22.629 0h11.314v-4h-11.314v4Zm22.628 0h11.314v-4h-11.314v4Zm22.628 0h11.314v-4h-11.314v4Zm22.629 0h11.314v-4h-11.314v4Zm22.628 0h11.314v-4h-11.314v4Zm22.628 0h11.314v-4h-11.314v4Zm22.629 0h11.314v-4h-11.314v4Zm22.628 0h5.657v-4h-5.657v4ZM645.668 825.277a2 2 0 0 0 0 4v-4Zm295.582 3.415a2 2 0 0 0 0-2.829l-12.728-12.728a2 2 0 1 0-2.828 2.829l11.314 11.313-11.314 11.314a2 2 0 1 0 2.828 2.828l12.728-12.727Zm-295.582.585h294.168v-4H645.668v4Z" fill="#231E0E"/><path d="M211.866 646.133v-22.912h14.688v3.328h-11.2v6.048h10.208v3.328h-10.208v6.88h11.2v3.328h-14.688Zm24.404 0-6.848-16.32h3.744l4.8 11.936h.16l4.8-11.936h3.68l-6.912 16.32h-3.424Zm21.171.512c-1.642 0-3.061-.362-4.256-1.088-1.173-.725-2.09-1.738-2.752-3.04-.64-1.301-.96-2.805-.96-4.512 0-1.728.331-3.242.992-4.544.683-1.322 1.622-2.346 2.816-3.072 1.216-.725 2.603-1.088 4.16-1.088 2.454 0 4.32.704 5.6 2.112 1.28 1.387 1.92 3.275 1.92 5.664 0 .576-.032 1.12-.096 1.632h-12.064c.107 1.579.587 2.784 1.44 3.616.875.832 1.984 1.248 3.328 1.248 1.088 0 1.952-.245 2.592-.736a4.294 4.294 0 0 0 1.376-1.888l2.976.8c-.448 1.472-1.269 2.656-2.464 3.552-1.173.896-2.709 1.344-4.608 1.344Zm0-14.464c-1.13 0-2.09.331-2.88.992-.789.662-1.322 1.654-1.6 2.976h8.64c-.064-1.194-.448-2.154-1.152-2.88-.704-.725-1.706-1.088-3.008-1.088Zm12.084 13.952v-16.32h3.232v2.048h.192c.426-.768 1.077-1.386 1.952-1.856a6.25 6.25 0 0 1 2.944-.704c1.834 0 3.253.555 4.256 1.664 1.002 1.11 1.504 2.635 1.504 4.576v10.592h-3.392v-10.144c0-1.194-.31-2.08-.928-2.656-.619-.576-1.419-.864-2.4-.864-1.195 0-2.155.438-2.88 1.312-.704.875-1.056 1.92-1.056 3.136v9.216h-3.424Zm29.011.48c-1.685 0-3.04-.49-4.064-1.472-1.024-1.002-1.536-2.432-1.536-4.288v-8.064h-3.744v-2.976h3.744v-4.48h3.424v4.48h5.984v2.976h-5.984v7.744c0 .918.235 1.632.704 2.144.47.491 1.174.736 2.112.736.811 0 1.6-.213 2.368-.64l.992 2.88c-.554.32-1.13.555-1.728.704-.576.171-1.333.256-2.272.256Zm16.308.032c-2.134 0-3.776-.469-4.928-1.408-1.152-.938-1.899-2.176-2.24-3.712l3.296-.608c.192.79.597 1.44 1.216 1.952.64.491 1.525.736 2.656.736.96 0 1.77-.17 2.432-.512.682-.362 1.024-.885 1.024-1.568 0-.661-.288-1.173-.864-1.536-.555-.362-1.376-.65-2.464-.864l-1.984-.352c-1.366-.234-2.486-.736-3.36-1.504-.875-.768-1.312-1.824-1.312-3.168 0-.938.277-1.76.832-2.464.554-.725 1.301-1.29 2.24-1.696.96-.426 2.048-.64 3.264-.64 1.792 0 3.253.363 4.384 1.088 1.152.726 1.877 1.867 2.176 3.424l-3.04.544c-.256-.81-.694-1.376-1.312-1.696-.619-.341-1.344-.512-2.176-.512-.854 0-1.579.182-2.176.544-.598.342-.896.779-.896 1.312 0 .576.234 1.035.704 1.376.49.32 1.194.566 2.112.736l2.368.416c1.6.278 2.816.79 3.648 1.536.832.726 1.248 1.846 1.248 3.36 0 1.046-.299 1.963-.896 2.752-.598.79-1.419 1.398-2.464 1.824-1.046.427-2.208.64-3.488.64Z" fill="#000"/><path d="M662.598 707.277v-22.912h7.552c1.429 0 2.72.256 3.872.768a6.19 6.19 0 0 1 2.752 2.368c.683 1.046 1.024 2.39 1.024 4.032 0 1.643-.341 2.998-1.024 4.064a6.183 6.183 0 0 1-2.752 2.368c-1.152.512-2.443.768-3.872.768h-4.064v8.544h-3.488Zm3.488-11.872h4.16c1.259 0 2.251-.33 2.976-.992.725-.661 1.088-1.621 1.088-2.88 0-1.258-.363-2.208-1.088-2.848-.725-.661-1.717-.992-2.976-.992h-4.16v7.712Zm21.715 12.384c-1.856 0-3.285-.554-4.288-1.664-1.002-1.13-1.504-2.656-1.504-4.576v-10.592h3.424v10.144c0 1.195.31 2.08.928 2.656.619.576 1.419.864 2.4.864 1.195 0 2.144-.426 2.848-1.28.726-.874 1.088-1.93 1.088-3.168v-9.216h3.392v16.32h-3.2v-2.08h-.192c-.426.768-1.088 1.398-1.984 1.888-.874.47-1.845.704-2.912.704Zm21.172 0c-1.216 0-2.251-.256-3.104-.768-.832-.512-1.472-1.109-1.92-1.792h-.192v2.048h-3.2v-22.912h3.392v6.336l-.192 2.304h.192c.405-.64 1.035-1.226 1.888-1.76.875-.533 1.92-.8 3.136-.8 1.408 0 2.656.352 3.744 1.056 1.109.704 1.973 1.707 2.592 3.008.619 1.28.928 2.816.928 4.608 0 1.792-.309 3.339-.928 4.64-.619 1.28-1.483 2.272-2.592 2.976-1.088.704-2.336 1.056-3.744 1.056Zm-.672-3.168c1.301 0 2.379-.469 3.232-1.408.875-.96 1.312-2.325 1.312-4.096 0-1.77-.437-3.125-1.312-4.064-.853-.96-1.931-1.44-3.232-1.44-1.301 0-2.389.48-3.264 1.44-.853.939-1.28 2.294-1.28 4.064 0 1.771.427 3.136 1.28 4.096.875.939 1.963 1.408 3.264 1.408Zm11.955 2.656v-3.104h5.6v-16.704h-4.64v-3.104h8.064v19.808h5.632v3.104h-14.656Zm26.516-19.392c-.747 0-1.376-.256-1.888-.768s-.768-1.141-.768-1.888c0-.725.256-1.344.768-1.856s1.141-.768 1.888-.768c.747 0 1.376.256 1.888.768a2.53 2.53 0 0 1 .768 1.856c0 .747-.256 1.376-.768 1.888s-1.141.768-1.888.768Zm-7.328 19.392v-3.104h5.6v-10.112h-4.64v-3.104h8.064v13.216h5.632v3.104h-14.656Zm26.579.512c-2.133 0-3.776-.469-4.928-1.408-1.152-.938-1.898-2.176-2.24-3.712l3.296-.608c.192.79.598 1.44 1.216 1.952.64.491 1.526.736 2.656.736.96 0 1.771-.17 2.432-.512.683-.362 1.024-.885 1.024-1.568 0-.661-.288-1.173-.864-1.536-.554-.362-1.376-.65-2.464-.864l-1.984-.352c-1.365-.234-2.485-.736-3.36-1.504-.874-.768-1.312-1.824-1.312-3.168 0-.938.278-1.76.832-2.464.555-.725 1.302-1.29 2.24-1.696.96-.426 2.048-.64 3.264-.64 1.792 0 3.254.363 4.384 1.088 1.152.726 1.878 1.867 2.176 3.424l-3.04.544c-.256-.81-.693-1.376-1.312-1.696-.618-.341-1.344-.512-2.176-.512-.853 0-1.578.182-2.176.544-.597.342-.896.779-.896 1.312 0 .576.235 1.035.704 1.376.491.32 1.195.566 2.112.736l2.368.416c1.6.278 2.816.79 3.648 1.536.832.726 1.248 1.846 1.248 3.36 0 1.046-.298 1.963-.896 2.752-.597.79-1.418 1.398-2.464 1.824-1.045.427-2.208.64-3.488.64Zm11.828-.512v-22.912h3.392v6.304l-.192 2.496h.192c.427-.768 1.099-1.408 2.016-1.92a6.117 6.117 0 0 1 3.072-.8c2.069 0 3.595.587 4.576 1.76 1.003 1.174 1.504 2.72 1.504 4.64v10.432h-3.392v-10.016c0-1.173-.32-2.069-.96-2.688-.619-.64-1.483-.96-2.592-.96-.832 0-1.568.214-2.208.64-.619.427-1.109 1.014-1.472 1.76-.363.726-.544 1.536-.544 2.432v8.832h-3.392Zm44.263.512c-1.856 0-3.285-.554-4.288-1.664-1.003-1.13-1.504-2.656-1.504-4.576v-10.592h3.424v10.144c0 1.195.309 2.08.928 2.656.619.576 1.419.864 2.4.864 1.195 0 2.144-.426 2.848-1.28.725-.874 1.088-1.93 1.088-3.168v-9.216h3.392v16.32h-3.2v-2.08h-.192c-.427.768-1.088 1.398-1.984 1.888-.875.47-1.845.704-2.912.704Zm12.979 6.4v-23.232h3.2v2.112h.192c.427-.704 1.067-1.312 1.92-1.824.875-.533 1.91-.8 3.104-.8 1.408 0 2.656.352 3.744 1.056 1.11.683 1.974 1.675 2.592 2.976.619 1.28.928 2.827.928 4.64 0 1.792-.309 3.339-.928 4.64-.618 1.302-1.482 2.304-2.592 3.008-1.088.683-2.336 1.024-3.744 1.024-1.237 0-2.282-.256-3.136-.768-.853-.512-1.482-1.109-1.888-1.792h-.192l.192 2.336v6.624h-3.392Zm7.744-9.568c1.302 0 2.379-.458 3.232-1.376.875-.938 1.312-2.314 1.312-4.128 0-1.813-.437-3.178-1.312-4.096-.853-.938-1.93-1.408-3.232-1.408-1.301 0-2.389.47-3.264 1.408-.853.918-1.28 2.283-1.28 4.096 0 1.814.427 3.19 1.28 4.128.875.918 1.963 1.376 3.264 1.376Zm18.324 3.168c-1.408 0-2.656-.341-3.744-1.024-1.088-.704-1.952-1.706-2.592-3.008-.619-1.301-.928-2.848-.928-4.64 0-1.813.32-3.36.96-4.64.64-1.301 1.515-2.293 2.624-2.976 1.109-.704 2.357-1.056 3.744-1.056 1.237 0 2.272.246 3.104.736.832.47 1.451 1.078 1.856 1.824h.192l-.192-2.336v-6.304h3.392v22.912h-3.2v-2.048h-.192c-.448.662-1.088 1.259-1.92 1.792-.811.512-1.845.768-3.104.768Zm.672-3.168c1.301 0 2.379-.469 3.232-1.408.875-.938 1.312-2.304 1.312-4.096 0-1.792-.437-3.157-1.312-4.096-.853-.938-1.931-1.408-3.232-1.408-1.301 0-2.389.47-3.264 1.408-.853.939-1.28 2.304-1.28 4.096 0 1.792.427 3.158 1.28 4.096.875.939 1.963 1.408 3.264 1.408Zm18.515 3.168c-1.408 0-2.656-.341-3.744-1.024-1.088-.704-1.952-1.706-2.592-3.008-.618-1.301-.928-2.848-.928-4.64 0-1.813.32-3.36.96-4.64.64-1.301 1.515-2.293 2.624-2.976 1.11-.704 2.358-1.056 3.744-1.056 1.238 0 2.272.246 3.104.736.832.47 1.451 1.078 1.856 1.824h.192v-2.048h3.2v16.32h-3.2v-2.048h-.192c-.448.662-1.088 1.259-1.92 1.792-.81.512-1.845.768-3.104.768Zm.672-3.168c1.302 0 2.379-.469 3.232-1.408.875-.938 1.312-2.304 1.312-4.096 0-1.792-.437-3.157-1.312-4.096-.853-.938-1.93-1.408-3.232-1.408-1.301 0-2.389.47-3.264 1.408-.853.939-1.28 2.304-1.28 4.096 0 1.792.427 3.158 1.28 4.096.875.939 1.963 1.408 3.264 1.408Zm22.196 3.136c-1.685 0-3.04-.49-4.064-1.472-1.024-1.002-1.536-2.432-1.536-4.288v-8.064h-3.744v-2.976h3.744v-4.48h3.424v4.48h5.984v2.976h-5.984v7.744c0 .918.235 1.632.704 2.144.469.491 1.173.736 2.112.736.811 0 1.6-.213 2.368-.64l.992 2.88a6.694 6.694 0 0 1-1.728.704c-.576.171-1.333.256-2.272.256Zm16.467.032c-1.642 0-3.061-.362-4.256-1.088-1.173-.725-2.09-1.738-2.752-3.04-.64-1.301-.96-2.805-.96-4.512 0-1.728.331-3.242.992-4.544.683-1.322 1.622-2.346 2.816-3.072 1.216-.725 2.603-1.088 4.16-1.088 2.454 0 4.32.704 5.6 2.112 1.28 1.387 1.92 3.275 1.92 5.664 0 .576-.032 1.12-.096 1.632h-12.064c.107 1.579.587 2.784 1.44 3.616.875.832 1.984 1.248 3.328 1.248 1.088 0 1.952-.245 2.592-.736a4.294 4.294 0 0 0 1.376-1.888l2.976.8c-.448 1.472-1.269 2.656-2.464 3.552-1.173.896-2.709 1.344-4.608 1.344Zm0-14.464c-1.13 0-2.09.331-2.88.992-.789.662-1.322 1.654-1.6 2.976h8.64c-.064-1.194-.448-2.154-1.152-2.88-.704-.725-1.706-1.088-3.008-1.088Zm19.028 14.464c-2.133 0-3.776-.469-4.928-1.408-1.152-.938-1.899-2.176-2.24-3.712l3.296-.608c.192.79.597 1.44 1.216 1.952.64.491 1.525.736 2.656.736.96 0 1.771-.17 2.432-.512.683-.362 1.024-.885 1.024-1.568 0-.661-.288-1.173-.864-1.536-.555-.362-1.376-.65-2.464-.864l-1.984-.352c-1.365-.234-2.485-.736-3.36-1.504s-1.312-1.824-1.312-3.168c0-.938.277-1.76.832-2.464.555-.725 1.301-1.29 2.24-1.696.96-.426 2.048-.64 3.264-.64 1.792 0 3.253.363 4.384 1.088 1.152.726 1.877 1.867 2.176 3.424l-3.04.544c-.256-.81-.693-1.376-1.312-1.696-.619-.341-1.344-.512-2.176-.512-.853 0-1.579.182-2.176.544-.597.342-.896.779-.896 1.312 0 .576.235 1.035.704 1.376.491.32 1.195.566 2.112.736l2.368.416c1.6.278 2.816.79 3.648 1.536.832.726 1.248 1.846 1.248 3.36 0 1.046-.299 1.963-.896 2.752-.597.79-1.419 1.398-2.464 1.824-1.045.427-2.208.64-3.488.64ZM1045.95 311.235c-2.69 0-4.8-1.024-6.33-3.072-1.54-2.048-2.31-5.014-2.31-8.896 0-2.603.35-4.79 1.06-6.56.72-1.771 1.74-3.115 3.04-4.032 1.3-.918 2.84-1.376 4.61-1.376 2.24 0 4.1.65 5.6 1.952 1.51 1.28 2.37 3.146 2.59 5.6l-3.39.576c-.17-1.472-.65-2.635-1.44-3.488-.79-.875-1.91-1.312-3.36-1.312-1.5 0-2.73.693-3.72 2.08-.98 1.365-1.47 3.552-1.47 6.56 0 3.008.49 5.205 1.47 6.592.99 1.365 2.22 2.048 3.72 2.048 1.36 0 2.46-.427 3.29-1.28.86-.875 1.39-2.07 1.6-3.584l3.33.416c-.3 2.41-1.15 4.309-2.56 5.696-1.41 1.386-3.32 2.08-5.73 2.08Zm18.42 0c-1.41 0-2.65-.342-3.74-1.024-1.09-.704-1.95-1.707-2.59-3.008-.62-1.302-.93-2.848-.93-4.64 0-1.814.32-3.36.96-4.64.64-1.302 1.51-2.294 2.62-2.976 1.11-.704 2.36-1.056 3.75-1.056 1.23 0 2.27.245 3.1.736.83.469 1.45 1.077 1.86 1.824h.19v-2.048h3.2v16.32h-3.2v-2.048h-.19c-.45.661-1.09 1.258-1.92 1.792-.81.512-1.85.768-3.11.768Zm.67-3.168c1.31 0 2.38-.47 3.24-1.408.87-.939 1.31-2.304 1.31-4.096 0-1.792-.44-3.158-1.31-4.096-.86-.939-1.93-1.408-3.24-1.408-1.3 0-2.39.469-3.26 1.408-.85.938-1.28 2.304-1.28 4.096 0 1.792.43 3.157 1.28 4.096.87.938 1.96 1.408 3.26 1.408Zm11.93 2.656v-3.104h5.6v-16.704h-4.64v-3.104h8.06v19.808h5.63v3.104h-14.65Zm19.18 0v-3.104h5.6v-16.704h-4.64v-3.104h8.07v19.808h5.63v3.104h-14.66Zm38.57 0v-22.912h14.75v3.328h-11.26v6.4h10.27v3.328h-10.27v9.856h-3.49Zm26.33-19.392c-.75 0-1.38-.256-1.89-.768s-.77-1.142-.77-1.888c0-.726.26-1.344.77-1.856s1.14-.768 1.89-.768c.74 0 1.37.256 1.88.768.52.512.77 1.13.77 1.856 0 .746-.25 1.376-.77 1.888-.51.512-1.14.768-1.88.768Zm-7.33 19.392v-3.104h5.6v-10.112h-4.64v-3.104h8.06v13.216h5.63v3.104h-14.65Zm21.17 0v-16.32h3.23v2.752h.19c.47-1.024 1.15-1.824 2.05-2.4.92-.576 2.01-.864 3.26-.864.62 0 1.2.053 1.73.16.56.085 1.01.234 1.35.448v3.584a7.987 7.987 0 0 0-1.73-.672 7.68 7.68 0 0 0-2.05-.256c-1.45 0-2.58.501-3.39 1.504-.81.981-1.22 2.218-1.22 3.712v8.352h-3.42Zm24.75.512c-1.64 0-3.06-.363-4.25-1.088-1.18-.726-2.09-1.739-2.75-3.04-.64-1.302-.96-2.806-.96-4.512 0-1.728.33-3.243.99-4.544.68-1.323 1.62-2.347 2.81-3.072 1.22-.726 2.61-1.088 4.16-1.088 2.46 0 4.32.704 5.6 2.112 1.28 1.386 1.92 3.274 1.92 5.664 0 .576-.03 1.12-.09 1.632H1195c.11 1.578.59 2.784 1.44 3.616.88.832 1.99 1.248 3.33 1.248 1.09 0 1.95-.246 2.59-.736a4.332 4.332 0 0 0 1.38-1.888l2.98.8c-.45 1.472-1.27 2.656-2.47 3.552-1.17.896-2.71 1.344-4.61 1.344Zm0-14.464c-1.13 0-2.09.33-2.88.992-.79.661-1.32 1.653-1.6 2.976h8.64c-.06-1.195-.44-2.155-1.15-2.88-.7-.726-1.7-1.088-3.01-1.088Zm19.54 14.464c-1.21 0-2.25-.256-3.1-.768-.83-.512-1.47-1.11-1.92-1.792h-.19v2.048h-3.2v-22.912h3.39v6.336l-.19 2.304h.19c.41-.64 1.03-1.227 1.89-1.76.87-.534 1.92-.8 3.13-.8 1.41 0 2.66.352 3.75 1.056 1.11.704 1.97 1.706 2.59 3.008.62 1.28.93 2.816.93 4.608 0 1.792-.31 3.338-.93 4.64-.62 1.28-1.48 2.272-2.59 2.976-1.09.704-2.34 1.056-3.75 1.056Zm-.67-3.168c1.3 0 2.38-.47 3.23-1.408.88-.96 1.32-2.326 1.32-4.096 0-1.771-.44-3.126-1.32-4.064-.85-.96-1.93-1.44-3.23-1.44s-2.39.48-3.26 1.44c-.86.938-1.28 2.293-1.28 4.064 0 1.77.42 3.136 1.28 4.096.87.938 1.96 1.408 3.26 1.408Zm18.55 3.168c-1.41 0-2.66-.342-3.74-1.024-1.09-.704-1.96-1.707-2.6-3.008-.62-1.302-.92-2.848-.92-4.64 0-1.814.32-3.36.96-4.64.64-1.302 1.51-2.294 2.62-2.976 1.11-.704 2.36-1.056 3.74-1.056 1.24 0 2.28.245 3.11.736.83.469 1.45 1.077 1.85 1.824h.2v-2.048h3.2v16.32h-3.2v-2.048h-.2c-.44.661-1.08 1.258-1.92 1.792-.81.512-1.84.768-3.1.768Zm.67-3.168c1.3 0 2.38-.47 3.23-1.408.88-.939 1.32-2.304 1.32-4.096 0-1.792-.44-3.158-1.32-4.096-.85-.939-1.93-1.408-3.23-1.408s-2.39.469-3.26 1.408c-.86.938-1.28 2.304-1.28 4.096 0 1.792.42 3.157 1.28 4.096.87.938 1.96 1.408 3.26 1.408Zm19.32 3.168c-2.14 0-3.78-.47-4.93-1.408-1.15-.939-1.9-2.176-2.24-3.712l3.29-.608c.2.789.6 1.44 1.22 1.952.64.49 1.53.736 2.66.736.96 0 1.77-.171 2.43-.512.68-.363 1.02-.886 1.02-1.568 0-.662-.29-1.174-.86-1.536-.56-.363-1.38-.651-2.47-.864l-1.98-.352c-1.36-.235-2.48-.736-3.36-1.504-.87-.768-1.31-1.824-1.31-3.168 0-.939.28-1.76.83-2.464.56-.726 1.3-1.291 2.24-1.696.96-.427 2.05-.64 3.26-.64 1.8 0 3.26.362 4.39 1.088 1.15.725 1.88 1.866 2.17 3.424l-3.04.544c-.25-.811-.69-1.376-1.31-1.696-.62-.342-1.34-.512-2.17-.512-.86 0-1.58.181-2.18.544-.6.341-.9.778-.9 1.312 0 .576.24 1.034.71 1.376.49.32 1.19.565 2.11.736l2.37.416c1.6.277 2.81.789 3.65 1.536.83.725 1.24 1.845 1.24 3.36 0 1.045-.29 1.962-.89 2.752-.6.789-1.42 1.397-2.47 1.824-1.04.426-2.2.64-3.48.64Zm19.34 0c-1.64 0-3.06-.363-4.25-1.088-1.18-.726-2.09-1.739-2.75-3.04-.64-1.302-.96-2.806-.96-4.512 0-1.728.33-3.243.99-4.544.68-1.323 1.62-2.347 2.81-3.072 1.22-.726 2.61-1.088 4.16-1.088 2.46 0 4.32.704 5.6 2.112 1.28 1.386 1.92 3.274 1.92 5.664 0 .576-.03 1.12-.09 1.632h-12.07c.11 1.578.59 2.784 1.44 3.616.88.832 1.99 1.248 3.33 1.248 1.09 0 1.95-.246 2.59-.736a4.332 4.332 0 0 0 1.38-1.888l2.98.8c-.45 1.472-1.27 2.656-2.47 3.552-1.17.896-2.71 1.344-4.61 1.344Zm0-14.464c-1.13 0-2.09.33-2.88.992-.79.661-1.32 1.653-1.6 2.976h8.64c-.06-1.195-.44-2.155-1.15-2.88-.7-.726-1.7-1.088-3.01-1.088Zm-239.78 53.952 7.1-22.912h4.39l7.13 22.912h-3.84l-1.69-5.728h-7.59l-1.69 5.728h-3.81Zm8.51-15.872-2.02 6.88h5.64l-2.05-6.88-.67-2.688h-.2l-.7 2.688Zm12.56 15.872v-22.912h7.56c1.43 0 2.72.256 3.87.768a6.173 6.173 0 0 1 2.75 2.368c.68 1.045 1.02 2.389 1.02 4.032 0 1.642-.34 2.997-1.02 4.064a6.179 6.179 0 0 1-2.75 2.368c-1.15.512-2.44.768-3.87.768h-4.07v8.544h-3.49Zm3.49-11.872h4.16c1.26 0 2.25-.331 2.98-.992.72-.662 1.09-1.622 1.09-2.88 0-1.259-.37-2.208-1.09-2.848-.73-.662-1.72-.992-2.98-.992h-4.16v7.712Zm15.99 11.872v-3.2h5.41v-16.512h-5.15v-3.2h13.76v3.2h-5.12v16.512h5.37v3.2h-14.27Zm37.06 0v-22.912h4.64l3.71 13.664h.2l3.71-13.664h4.64v22.912h-3.33v-12.576l.19-4.064h-.19l-3.65 13.44h-2.94l-3.65-13.44h-.19l.16 4.064v12.576h-3.3Zm27.86.512c-1.64 0-3.06-.363-4.25-1.088-1.18-.726-2.09-1.739-2.76-3.04-.64-1.302-.96-2.806-.96-4.512 0-1.728.33-3.243 1-4.544.68-1.323 1.62-2.347 2.81-3.072 1.22-.726 2.6-1.088 4.16-1.088 2.46 0 4.32.704 5.6 2.112 1.28 1.386 1.92 3.274 1.92 5.664 0 .576-.03 1.12-.09 1.632h-12.07c.11 1.578.59 2.784 1.44 3.616.88.832 1.99 1.248 3.33 1.248 1.09 0 1.95-.246 2.59-.736a4.332 4.332 0 0 0 1.38-1.888l2.97.8c-.44 1.472-1.27 2.656-2.46 3.552-1.17.896-2.71 1.344-4.61 1.344Zm0-14.464c-1.13 0-2.09.33-2.88.992-.79.661-1.32 1.653-1.6 2.976h8.64c-.06-1.195-.45-2.155-1.15-2.88-.7-.726-1.71-1.088-3.01-1.088Zm21.91 14.432c-1.69 0-3.04-.491-4.06-1.472-1.03-1.003-1.54-2.432-1.54-4.288v-8.064h-3.74v-2.976h3.74v-4.48h3.42v4.48h5.99v2.976h-5.99v7.744c0 .917.24 1.632.71 2.144.47.49 1.17.736 2.11.736.81 0 1.6-.214 2.37-.64l.99 2.88c-.56.32-1.13.554-1.73.704-.57.17-1.33.256-2.27.256Zm8.95-.48v-22.912h3.39v6.304l-.19 2.496h.19c.43-.768 1.1-1.408 2.01-1.92.94-.534 1.97-.8 3.08-.8 2.07 0 3.59.586 4.57 1.76 1.01 1.173 1.51 2.72 1.51 4.64v10.432h-3.4v-10.016c0-1.174-.32-2.07-.96-2.688-.61-.64-1.48-.96-2.59-.96-.83 0-1.57.213-2.21.64-.61.426-1.1 1.013-1.47 1.76-.36.725-.54 1.536-.54 2.432v8.832h-3.39Zm26.48.512c-1.66 0-3.11-.363-4.35-1.088a7.511 7.511 0 0 1-2.82-3.072c-.66-1.323-.99-2.827-.99-4.512 0-1.707.33-3.211.99-4.512.66-1.302 1.6-2.315 2.82-3.04 1.24-.747 2.69-1.12 4.35-1.12 1.66 0 3.1.373 4.32 1.12a7.231 7.231 0 0 1 2.85 3.04c.66 1.301.99 2.805.99 4.512 0 1.706-.33 3.21-.99 4.512a7.449 7.449 0 0 1-2.85 3.072c-1.22.725-2.66 1.088-4.32 1.088Zm0-3.168c1.39 0 2.53-.47 3.42-1.408.9-.96 1.35-2.326 1.35-4.096 0-1.771-.45-3.126-1.35-4.064-.89-.96-2.03-1.44-3.42-1.44-1.39 0-2.53.48-3.42 1.44-.9.938-1.35 2.293-1.35 4.064 0 1.77.45 3.136 1.35 4.096.89.938 2.03 1.408 3.42 1.408Zm18.45 3.168c-1.41 0-2.65-.342-3.74-1.024-1.09-.704-1.95-1.707-2.59-3.008-.62-1.302-.93-2.848-.93-4.64 0-1.814.32-3.36.96-4.64.64-1.302 1.51-2.294 2.62-2.976 1.11-.704 2.36-1.056 3.75-1.056 1.23 0 2.27.245 3.1.736.83.469 1.45 1.077 1.86 1.824h.19l-.19-2.336v-6.304h3.39v22.912h-3.2v-2.048h-.19c-.45.661-1.09 1.258-1.92 1.792-.81.512-1.85.768-3.11.768Zm.67-3.168c1.31 0 2.38-.47 3.24-1.408.87-.939 1.31-2.304 1.31-4.096 0-1.792-.44-3.158-1.31-4.096-.86-.939-1.93-1.408-3.24-1.408-1.3 0-2.39.469-3.26 1.408-.85.938-1.28 2.304-1.28 4.096 0 1.792.43 3.157 1.28 4.096.87.938 1.96 1.408 3.26 1.408Zm19.32 3.168c-2.13 0-3.78-.47-4.93-1.408-1.15-.939-1.9-2.176-2.24-3.712l3.3-.608c.19.789.59 1.44 1.21 1.952.64.49 1.53.736 2.66.736.96 0 1.77-.171 2.43-.512.68-.363 1.03-.886 1.03-1.568 0-.662-.29-1.174-.87-1.536-.55-.363-1.37-.651-2.46-.864l-1.99-.352c-1.36-.235-2.48-.736-3.36-1.504-.87-.768-1.31-1.824-1.31-3.168 0-.939.28-1.76.83-2.464.56-.726 1.3-1.291 2.24-1.696.96-.427 2.05-.64 3.27-.64 1.79 0 3.25.362 4.38 1.088 1.15.725 1.88 1.866 2.18 3.424l-3.04.544c-.26-.811-.7-1.376-1.31-1.696-.62-.342-1.35-.512-2.18-.512-.85 0-1.58.181-2.18.544-.59.341-.89.778-.89 1.312 0 .576.23 1.034.7 1.376.49.32 1.2.565 2.11.736l2.37.416c1.6.277 2.82.789 3.65 1.536.83.725 1.25 1.845 1.25 3.36 0 1.045-.3 1.962-.9 2.752-.6.789-1.42 1.397-2.46 1.824-1.05.426-2.21.64-3.49.64ZM1471.79 840.277v-22.912h3.49v19.584h11.42v3.328h-14.91Zm26.13-19.392c-.75 0-1.38-.256-1.89-.768s-.77-1.141-.77-1.888c0-.725.26-1.344.77-1.856s1.14-.768 1.89-.768 1.38.256 1.89.768.77 1.131.77 1.856c0 .747-.26 1.376-.77 1.888s-1.14.768-1.89.768Zm-7.33 19.392v-3.104h5.6v-10.112h-4.64v-3.104h8.07v13.216h5.63v3.104h-14.66Zm26.58.512c-2.13 0-3.77-.469-4.93-1.408-1.15-.938-1.89-2.176-2.24-3.712l3.3-.608c.19.79.6 1.44 1.22 1.952.64.491 1.52.736 2.65.736.96 0 1.77-.17 2.43-.512.69-.362 1.03-.885 1.03-1.568 0-.661-.29-1.173-.87-1.536-.55-.362-1.37-.65-2.46-.864l-1.98-.352c-1.37-.234-2.49-.736-3.36-1.504-.88-.768-1.32-1.824-1.32-3.168 0-.938.28-1.76.84-2.464.55-.725 1.3-1.29 2.24-1.696.96-.426 2.04-.64 3.26-.64 1.79 0 3.25.363 4.38 1.088 1.16.726 1.88 1.867 2.18 3.424l-3.04.544c-.26-.81-.69-1.376-1.31-1.696-.62-.341-1.35-.512-2.18-.512-.85 0-1.58.182-2.17.544-.6.342-.9.779-.9 1.312 0 .576.23 1.035.7 1.376.49.32 1.2.566 2.12.736l2.36.416c1.6.278 2.82.79 3.65 1.536.83.726 1.25 1.846 1.25 3.36 0 1.046-.3 1.963-.9 2.752-.59.79-1.41 1.398-2.46 1.824-1.05.427-2.21.64-3.49.64Zm22.07-.032c-1.69 0-3.04-.49-4.06-1.472-1.03-1.002-1.54-2.432-1.54-4.288v-8.064h-3.74v-2.976h3.74v-4.48h3.42v4.48h5.99v2.976h-5.99v7.744c0 .918.24 1.632.71 2.144.47.491 1.17.736 2.11.736.81 0 1.6-.213 2.37-.64l.99 2.88c-.56.32-1.13.555-1.73.704-.57.171-1.33.256-2.27.256Zm16.47.032c-1.65 0-3.06-.362-4.26-1.088-1.17-.725-2.09-1.738-2.75-3.04-.64-1.301-.96-2.805-.96-4.512 0-1.728.33-3.242.99-4.544.68-1.322 1.62-2.346 2.82-3.072 1.21-.725 2.6-1.088 4.16-1.088 2.45 0 4.32.704 5.6 2.112 1.28 1.387 1.92 3.275 1.92 5.664 0 .576-.04 1.12-.1 1.632h-12.06c.1 1.579.58 2.784 1.44 3.616.87.832 1.98 1.248 3.32 1.248 1.09 0 1.96-.245 2.6-.736a4.228 4.228 0 0 0 1.37-1.888l2.98.8c-.45 1.472-1.27 2.656-2.47 3.552-1.17.896-2.7 1.344-4.6 1.344Zm0-14.464c-1.13 0-2.09.331-2.88.992-.79.662-1.33 1.654-1.6 2.976h8.64c-.07-1.194-.45-2.154-1.16-2.88-.7-.725-1.7-1.088-3-1.088Zm12.08 13.952v-16.32h3.23v2.048h.19c.43-.768 1.08-1.386 1.96-1.856.89-.469 1.87-.704 2.94-.704 1.83 0 3.25.555 4.26 1.664 1 1.11 1.5 2.635 1.5 4.576v10.592h-3.39v-10.144c0-1.194-.31-2.08-.93-2.656-.62-.576-1.42-.864-2.4-.864-1.19 0-2.15.438-2.88 1.312-.7.875-1.06 1.92-1.06 3.136v9.216h-3.42Zm48.2.48c-1.69 0-3.04-.49-4.06-1.472-1.03-1.002-1.54-2.432-1.54-4.288v-8.064h-3.74v-2.976h3.74v-4.48h3.42v4.48h5.99v2.976h-5.99v7.744c0 .918.24 1.632.71 2.144.47.491 1.17.736 2.11.736.81 0 1.6-.213 2.37-.64l.99 2.88c-.56.32-1.13.555-1.73.704-.57.171-1.33.256-2.27.256Zm16.24.032c-1.66 0-3.11-.362-4.35-1.088-1.22-.746-2.15-1.77-2.82-3.072-.66-1.322-.99-2.826-.99-4.512 0-1.706.33-3.21.99-4.512.67-1.301 1.6-2.314 2.82-3.04 1.24-.746 2.69-1.12 4.35-1.12 1.67 0 3.11.374 4.32 1.12a7.243 7.243 0 0 1 2.85 3.04c.66 1.302.99 2.806.99 4.512 0 1.707-.33 3.211-.99 4.512a7.437 7.437 0 0 1-2.85 3.072c-1.21.726-2.65 1.088-4.32 1.088Zm0-3.168c1.39 0 2.53-.469 3.43-1.408.89-.96 1.34-2.325 1.34-4.096 0-1.77-.45-3.125-1.34-4.064-.9-.96-2.04-1.44-3.43-1.44-1.38 0-2.53.48-3.42 1.44-.9.939-1.35 2.294-1.35 4.064 0 1.771.45 3.136 1.35 4.096.89.939 2.04 1.408 3.42 1.408Zm29.07 2.656 7.1-22.912h4.38l7.14 22.912h-3.84l-1.7-5.728h-7.58l-1.7 5.728h-3.8Zm8.51-15.872-2.02 6.88h5.63l-2.04-6.88-.68-2.688h-.19l-.7 2.688Zm12.56 15.872v-22.912h7.55c1.43 0 2.72.256 3.88.768a6.232 6.232 0 0 1 2.75 2.368c.68 1.046 1.02 2.39 1.02 4.032 0 1.643-.34 2.998-1.02 4.064a6.226 6.226 0 0 1-2.75 2.368c-1.16.512-2.45.768-3.88.768h-4.06v8.544h-3.49Zm3.49-11.872h4.16c1.26 0 2.25-.33 2.98-.992.72-.661 1.08-1.621 1.08-2.88 0-1.258-.36-2.208-1.08-2.848-.73-.661-1.72-.992-2.98-.992h-4.16v7.712Zm15.99 11.872v-3.2h5.4v-16.512h-5.15v-3.2h13.76v3.2h-5.12v16.512h5.38v3.2h-14.27Zm-223.09 40.512c-2.68 0-4.8-1.024-6.33-3.072-1.54-2.048-2.31-5.013-2.31-8.896 0-2.602.36-4.789 1.06-6.56.73-1.77 1.74-3.114 3.04-4.032 1.3-.917 2.84-1.376 4.61-1.376 2.24 0 4.11.651 5.6 1.952 1.51 1.28 2.38 3.147 2.59 5.6l-3.39.576c-.17-1.472-.65-2.634-1.44-3.488-.79-.874-1.91-1.312-3.36-1.312-1.49 0-2.73.694-3.71 2.08-.98 1.366-1.48 3.552-1.48 6.56 0 3.008.5 5.206 1.48 6.592.98 1.366 2.22 2.048 3.71 2.048 1.36 0 2.46-.426 3.29-1.28.86-.874 1.39-2.069 1.6-3.584l3.33.416c-.3 2.411-1.15 4.31-2.56 5.696-1.41 1.387-3.31 2.08-5.73 2.08Zm18.42 0c-1.4 0-2.65-.341-3.74-1.024-1.09-.704-1.95-1.706-2.59-3.008-.62-1.301-.93-2.848-.93-4.64 0-1.813.32-3.36.96-4.64.64-1.301 1.51-2.293 2.62-2.976 1.11-.704 2.36-1.056 3.75-1.056 1.24 0 2.27.246 3.1.736.83.47 1.45 1.078 1.86 1.824h.19v-2.048h3.2v16.32h-3.2v-2.048h-.19c-.45.662-1.09 1.259-1.92 1.792-.81.512-1.85.768-3.11.768Zm.68-3.168c1.3 0 2.37-.469 3.23-1.408.87-.938 1.31-2.304 1.31-4.096 0-1.792-.44-3.157-1.31-4.096-.86-.938-1.93-1.408-3.23-1.408-1.31 0-2.39.47-3.27 1.408-.85.939-1.28 2.304-1.28 4.096 0 1.792.43 3.158 1.28 4.096.88.939 1.96 1.408 3.27 1.408Zm11.92 2.656v-3.104h5.6v-16.704h-4.64v-3.104h8.06v19.808h5.64v3.104h-14.66Zm19.19 0v-3.104h5.6v-16.704h-4.64v-3.104h8.06v19.808h5.63v3.104h-14.65Zm27.09.512c-1.22 0-2.25-.256-3.11-.768-.83-.512-1.47-1.109-1.92-1.792h-.19v2.048h-3.2v-22.912h3.39v6.336l-.19 2.304h.19c.41-.64 1.04-1.226 1.89-1.76.88-.533 1.92-.8 3.14-.8 1.41 0 2.65.352 3.74 1.056 1.11.704 1.98 1.707 2.59 3.008.62 1.28.93 2.816.93 4.608 0 1.792-.31 3.339-.93 4.64-.61 1.28-1.48 2.272-2.59 2.976-1.09.704-2.33 1.056-3.74 1.056Zm-.67-3.168c1.3 0 2.38-.469 3.23-1.408.87-.96 1.31-2.325 1.31-4.096 0-1.77-.44-3.125-1.31-4.064-.85-.96-1.93-1.44-3.23-1.44s-2.39.48-3.27 1.44c-.85.939-1.28 2.294-1.28 4.064 0 1.771.43 3.136 1.28 4.096.88.939 1.97 1.408 3.27 1.408Zm18.54 3.168c-1.4 0-2.65-.341-3.74-1.024-1.09-.704-1.95-1.706-2.59-3.008-.62-1.301-.93-2.848-.93-4.64 0-1.813.32-3.36.96-4.64.64-1.301 1.51-2.293 2.62-2.976 1.11-.704 2.36-1.056 3.75-1.056 1.24 0 2.27.246 3.1.736.83.47 1.45 1.078 1.86 1.824h.19v-2.048h3.2v16.32h-3.2v-2.048h-.19c-.45.662-1.09 1.259-1.92 1.792-.81.512-1.85.768-3.11.768Zm.68-3.168c1.3 0 2.37-.469 3.23-1.408.87-.938 1.31-2.304 1.31-4.096 0-1.792-.44-3.157-1.31-4.096-.86-.938-1.93-1.408-3.23-1.408-1.31 0-2.39.47-3.27 1.408-.85.939-1.28 2.304-1.28 4.096 0 1.792.43 3.158 1.28 4.096.88.939 1.96 1.408 3.27 1.408Zm19.5 3.168c-1.55 0-2.93-.352-4.12-1.056-1.2-.725-2.13-1.738-2.79-3.04-.66-1.301-.99-2.826-.99-4.576 0-1.749.34-3.274 1.02-4.576.69-1.301 1.63-2.304 2.82-3.008 1.22-.725 2.61-1.088 4.19-1.088 1.96 0 3.6.48 4.9 1.44 1.32.96 2.13 2.304 2.43 4.032l-3.33.544a3.441 3.441 0 0 0-1.41-2.08c-.7-.533-1.59-.8-2.65-.8-1.28 0-2.37.48-3.27 1.44-.87.96-1.31 2.326-1.31 4.096 0 1.771.44 3.136 1.31 4.096.88.939 1.97 1.408 3.27 1.408 1.09 0 1.96-.256 2.62-.768.66-.533 1.15-1.29 1.47-2.272l3.2.768c-.38 1.6-1.19 2.912-2.43 3.936-1.24 1.003-2.88 1.504-4.93 1.504Zm11.74-.512v-22.912h3.39v13.184h.13l6.68-6.592h4.26v.192l-6.34 6.208 6.37 9.728v.192h-3.84l-4.99-7.52-2.27 2.208v5.312h-3.39Zm26.45.512c-2.14 0-3.78-.469-4.93-1.408-1.15-.938-1.9-2.176-2.24-3.712l3.29-.608c.2.79.6 1.44 1.22 1.952.64.491 1.53.736 2.66.736.96 0 1.77-.17 2.43-.512.68-.362 1.02-.885 1.02-1.568 0-.661-.29-1.173-.86-1.536-.56-.362-1.38-.65-2.47-.864l-1.98-.352c-1.36-.234-2.48-.736-3.36-1.504-.87-.768-1.31-1.824-1.31-3.168 0-.938.28-1.76.83-2.464.56-.725 1.3-1.29 2.24-1.696.96-.426 2.05-.64 3.26-.64 1.8 0 3.26.363 4.39 1.088 1.15.726 1.88 1.867 2.17 3.424l-3.04.544c-.25-.81-.69-1.376-1.31-1.696-.62-.341-1.34-.512-2.17-.512-.86 0-1.58.182-2.18.544-.6.342-.9.779-.9 1.312 0 .576.24 1.035.71 1.376.49.32 1.19.566 2.11.736l2.37.416c1.6.278 2.81.79 3.65 1.536.83.726 1.24 1.846 1.24 3.36 0 1.046-.29 1.963-.89 2.752-.6.79-1.42 1.398-2.47 1.824-1.04.427-2.2.64-3.48.64ZM662.497 878.277v-22.912h8.192c2.262 0 4.054.619 5.376 1.856 1.344 1.216 2.016 2.934 2.016 5.152 0 1.686-.49 3.094-1.472 4.224a7.225 7.225 0 0 1-3.616 2.24l-.064.16 5.312 9.088v.192h-3.776l-5.312-8.992h-3.168v8.992h-3.488Zm3.488-12.224h4.768c1.131 0 2.048-.309 2.752-.928.704-.64 1.056-1.568 1.056-2.784 0-1.216-.341-2.133-1.024-2.752-.682-.618-1.61-.928-2.784-.928h-4.768v7.392Zm23.636 12.736c-1.643 0-3.061-.362-4.256-1.088-1.173-.725-2.091-1.738-2.752-3.04-.64-1.301-.96-2.805-.96-4.512 0-1.728.331-3.242.992-4.544.683-1.322 1.621-2.346 2.816-3.072 1.216-.725 2.603-1.088 4.16-1.088 2.453 0 4.32.704 5.6 2.112 1.28 1.387 1.92 3.275 1.92 5.664 0 .576-.032 1.12-.096 1.632h-12.064c.107 1.579.587 2.784 1.44 3.616.875.832 1.984 1.248 3.328 1.248 1.088 0 1.952-.245 2.592-.736a4.294 4.294 0 0 0 1.376-1.888l2.976.8c-.448 1.472-1.269 2.656-2.464 3.552-1.173.896-2.709 1.344-4.608 1.344Zm0-14.464c-1.131 0-2.091.331-2.88.992-.789.662-1.323 1.654-1.6 2.976h8.64c-.064-1.194-.448-2.154-1.152-2.88-.704-.725-1.707-1.088-3.008-1.088Zm23.219 20.864v-6.624l.192-2.368h-.192c-.405.704-1.045 1.312-1.92 1.824-.874.512-1.92.768-3.136.768-1.408 0-2.656-.341-3.744-1.024-1.088-.704-1.941-1.706-2.56-3.008-.618-1.301-.928-2.848-.928-4.64 0-1.813.31-3.36.928-4.64.619-1.301 1.472-2.293 2.56-2.976 1.11-.704 2.368-1.056 3.776-1.056 1.195 0 2.219.256 3.072.768.875.512 1.526 1.131 1.952 1.856h.192v-2.112h3.2v23.232h-3.392Zm-4.384-9.568c1.323 0 2.411-.458 3.264-1.376.875-.938 1.312-2.314 1.312-4.128 0-1.813-.437-3.178-1.312-4.096-.853-.938-1.941-1.408-3.264-1.408-1.301 0-2.378.47-3.232 1.408-.853.918-1.28 2.283-1.28 4.096 0 1.814.427 3.19 1.28 4.128.854.918 1.931 1.376 3.232 1.376Zm17.908 3.168c-1.856 0-3.285-.554-4.288-1.664-1.003-1.13-1.504-2.656-1.504-4.576v-10.592h3.424v10.144c0 1.195.309 2.08.928 2.656.619.576 1.419.864 2.4.864 1.195 0 2.144-.426 2.848-1.28.725-.874 1.088-1.93 1.088-3.168v-9.216h3.392v16.32h-3.2v-2.08h-.192c-.427.768-1.088 1.398-1.984 1.888-.875.47-1.845.704-2.912.704Zm20.819 0c-1.642 0-3.061-.362-4.256-1.088-1.173-.725-2.09-1.738-2.752-3.04-.64-1.301-.96-2.805-.96-4.512 0-1.728.331-3.242.992-4.544.683-1.322 1.622-2.346 2.816-3.072 1.216-.725 2.603-1.088 4.16-1.088 2.454 0 4.32.704 5.6 2.112 1.28 1.387 1.92 3.275 1.92 5.664 0 .576-.032 1.12-.096 1.632h-12.064c.107 1.579.587 2.784 1.44 3.616.875.832 1.984 1.248 3.328 1.248 1.088 0 1.952-.245 2.592-.736a4.294 4.294 0 0 0 1.376-1.888l2.976.8c-.448 1.472-1.269 2.656-2.464 3.552-1.173.896-2.709 1.344-4.608 1.344Zm0-14.464c-1.13 0-2.09.331-2.88.992-.789.662-1.322 1.654-1.6 2.976h8.64c-.064-1.194-.448-2.154-1.152-2.88-.704-.725-1.706-1.088-3.008-1.088Zm19.028 14.464c-2.133 0-3.776-.469-4.928-1.408-1.152-.938-1.899-2.176-2.24-3.712l3.296-.608c.192.79.597 1.44 1.216 1.952.64.491 1.525.736 2.656.736.96 0 1.771-.17 2.432-.512.683-.362 1.024-.885 1.024-1.568 0-.661-.288-1.173-.864-1.536-.555-.362-1.376-.65-2.464-.864l-1.984-.352c-1.365-.234-2.485-.736-3.36-1.504s-1.312-1.824-1.312-3.168c0-.938.277-1.76.832-2.464.555-.725 1.301-1.29 2.24-1.696.96-.426 2.048-.64 3.264-.64 1.792 0 3.253.363 4.384 1.088 1.152.726 1.877 1.867 2.176 3.424l-3.04.544c-.256-.81-.693-1.376-1.312-1.696-.619-.341-1.344-.512-2.176-.512-.853 0-1.579.182-2.176.544-.597.342-.896.779-.896 1.312 0 .576.235 1.035.704 1.376.491.32 1.195.566 2.112.736l2.368.416c1.6.278 2.816.79 3.648 1.536.832.726 1.248 1.846 1.248 3.36 0 1.046-.299 1.963-.896 2.752-.597.79-1.419 1.398-2.464 1.824-1.045.427-2.208.64-3.488.64Zm22.067-.032c-1.685 0-3.04-.49-4.064-1.472-1.024-1.002-1.536-2.432-1.536-4.288v-8.064h-3.744v-2.976h3.744v-4.48h3.424v4.48h5.984v2.976h-5.984v7.744c0 .918.235 1.632.704 2.144.47.491 1.174.736 2.112.736.811 0 1.6-.213 2.368-.64l.992 2.88c-.554.32-1.13.555-1.728.704-.576.171-1.333.256-2.272.256Zm34.023.032c-1.856 0-3.285-.554-4.288-1.664-1.002-1.13-1.504-2.656-1.504-4.576v-10.592h3.424v10.144c0 1.195.31 2.08.928 2.656.619.576 1.419.864 2.4.864 1.195 0 2.144-.426 2.848-1.28.726-.874 1.088-1.93 1.088-3.168v-9.216h3.392v16.32h-3.2v-2.08h-.192c-.426.768-1.088 1.398-1.984 1.888-.874.47-1.845.704-2.912.704Zm12.98 6.4v-23.232h3.2v2.112h.192c.427-.704 1.067-1.312 1.92-1.824.875-.533 1.909-.8 3.104-.8 1.408 0 2.656.352 3.744 1.056 1.109.683 1.973 1.675 2.592 2.976.619 1.28.928 2.827.928 4.64 0 1.792-.309 3.339-.928 4.64-.619 1.302-1.483 2.304-2.592 3.008-1.088.683-2.336 1.024-3.744 1.024-1.237 0-2.283-.256-3.136-.768-.853-.512-1.483-1.109-1.888-1.792h-.192l.192 2.336v6.624h-3.392Zm7.744-9.568c1.301 0 2.379-.458 3.232-1.376.875-.938 1.312-2.314 1.312-4.128 0-1.813-.437-3.178-1.312-4.096-.853-.938-1.931-1.408-3.232-1.408-1.301 0-2.389.47-3.264 1.408-.853.918-1.28 2.283-1.28 4.096 0 1.814.427 3.19 1.28 4.128.875.918 1.963 1.376 3.264 1.376Zm18.323 3.168c-1.408 0-2.656-.341-3.744-1.024-1.088-.704-1.952-1.706-2.592-3.008-.618-1.301-.928-2.848-.928-4.64 0-1.813.32-3.36.96-4.64.64-1.301 1.515-2.293 2.624-2.976 1.11-.704 2.358-1.056 3.744-1.056 1.238 0 2.272.246 3.104.736.832.47 1.451 1.078 1.856 1.824h.192l-.192-2.336v-6.304h3.392v22.912h-3.2v-2.048h-.192c-.448.662-1.088 1.259-1.92 1.792-.81.512-1.845.768-3.104.768Zm.672-3.168c1.302 0 2.379-.469 3.232-1.408.875-.938 1.312-2.304 1.312-4.096 0-1.792-.437-3.157-1.312-4.096-.853-.938-1.93-1.408-3.232-1.408-1.301 0-2.389.47-3.264 1.408-.853.939-1.28 2.304-1.28 4.096 0 1.792.427 3.158 1.28 4.096.875.939 1.963 1.408 3.264 1.408Zm18.516 3.168c-1.408 0-2.656-.341-3.744-1.024-1.088-.704-1.952-1.706-2.592-3.008-.619-1.301-.928-2.848-.928-4.64 0-1.813.32-3.36.96-4.64.64-1.301 1.515-2.293 2.624-2.976 1.109-.704 2.357-1.056 3.744-1.056 1.237 0 2.272.246 3.104.736.832.47 1.451 1.078 1.856 1.824h.192v-2.048h3.2v16.32h-3.2v-2.048h-.192c-.448.662-1.088 1.259-1.92 1.792-.811.512-1.845.768-3.104.768Zm.672-3.168c1.301 0 2.379-.469 3.232-1.408.875-.938 1.312-2.304 1.312-4.096 0-1.792-.437-3.157-1.312-4.096-.853-.938-1.931-1.408-3.232-1.408-1.301 0-2.389.47-3.264 1.408-.853.939-1.28 2.304-1.28 4.096 0 1.792.427 3.158 1.28 4.096.875.939 1.963 1.408 3.264 1.408Zm22.195 3.136c-1.685 0-3.04-.49-4.064-1.472-1.024-1.002-1.536-2.432-1.536-4.288v-8.064h-3.744v-2.976h3.744v-4.48h3.424v4.48h5.984v2.976h-5.984v7.744c0 .918.235 1.632.704 2.144.47.491 1.174.736 2.112.736.811 0 1.6-.213 2.368-.64l.992 2.88c-.554.32-1.13.555-1.728.704-.576.171-1.333.256-2.272.256Zm16.468.032c-1.643 0-3.061-.362-4.256-1.088-1.173-.725-2.091-1.738-2.752-3.04-.64-1.301-.96-2.805-.96-4.512 0-1.728.331-3.242.992-4.544.683-1.322 1.621-2.346 2.816-3.072 1.216-.725 2.603-1.088 4.16-1.088 2.453 0 4.32.704 5.6 2.112 1.28 1.387 1.92 3.275 1.92 5.664 0 .576-.032 1.12-.096 1.632h-12.064c.107 1.579.587 2.784 1.44 3.616.875.832 1.984 1.248 3.328 1.248 1.088 0 1.952-.245 2.592-.736a4.294 4.294 0 0 0 1.376-1.888l2.976.8c-.448 1.472-1.269 2.656-2.464 3.552-1.173.896-2.709 1.344-4.608 1.344Zm0-14.464c-1.131 0-2.091.331-2.88.992-.789.662-1.323 1.654-1.6 2.976h8.64c-.064-1.194-.448-2.154-1.152-2.88-.704-.725-1.707-1.088-3.008-1.088Zm19.027 14.464c-2.133 0-3.776-.469-4.928-1.408-1.152-.938-1.898-2.176-2.24-3.712l3.296-.608c.192.79.598 1.44 1.216 1.952.64.491 1.526.736 2.656.736.96 0 1.771-.17 2.432-.512.683-.362 1.024-.885 1.024-1.568 0-.661-.288-1.173-.864-1.536-.554-.362-1.376-.65-2.464-.864l-1.984-.352c-1.365-.234-2.485-.736-3.36-1.504-.874-.768-1.312-1.824-1.312-3.168 0-.938.278-1.76.832-2.464.555-.725 1.302-1.29 2.24-1.696.96-.426 2.048-.64 3.264-.64 1.792 0 3.254.363 4.384 1.088 1.152.726 1.878 1.867 2.176 3.424l-3.04.544c-.256-.81-.693-1.376-1.312-1.696-.618-.341-1.344-.512-2.176-.512-.853 0-1.578.182-2.176.544-.597.342-.896.779-.896 1.312 0 .576.235 1.035.704 1.376.491.32 1.195.566 2.112.736l2.368.416c1.6.278 2.816.79 3.648 1.536.832.726 1.248 1.846 1.248 3.36 0 1.046-.298 1.963-.896 2.752-.597.79-1.418 1.398-2.464 1.824-1.045.427-2.208.64-3.488.64Z" fill="#231E0E"/><path d="M430.342 425.208c-2.496 0-4.49-.779-5.984-2.336-1.472-1.558-2.208-3.744-2.208-6.56v-14.528h3.456v14.72c0 1.706.427 3.029 1.28 3.968.854.938 2.006 1.408 3.456 1.408 1.451 0 2.603-.47 3.456-1.408.854-.939 1.28-2.262 1.28-3.968v-14.72h3.456v14.528c0 1.834-.341 3.424-1.024 4.768-.661 1.322-1.61 2.346-2.848 3.072-1.216.704-2.656 1.056-4.32 1.056Zm12.052-.512v-3.2h5.408v-16.512h-5.152v-3.2h13.76v3.2h-5.12v16.512h5.376v3.2h-14.272Zm45.639.512c-2.347 0-4.267-.619-5.76-1.856-1.472-1.259-2.379-2.976-2.72-5.152l3.52-.768c.192 1.28.704 2.346 1.536 3.2.832.832 1.984 1.248 3.456 1.248 1.322 0 2.389-.31 3.2-.928.81-.619 1.216-1.451 1.216-2.496 0-1.067-.363-1.878-1.088-2.432-.704-.576-1.867-1.11-3.488-1.6l-1.92-.576a10.87 10.87 0 0 1-2.688-1.184 6.38 6.38 0 0 1-2.016-2.048c-.512-.854-.768-1.899-.768-3.136 0-1.131.288-2.166.864-3.104.576-.939 1.408-1.686 2.496-2.24 1.088-.576 2.389-.864 3.904-.864 2.368 0 4.181.586 5.44 1.76 1.28 1.152 2.016 2.613 2.208 4.384l-3.328.512c-.214-1.046-.672-1.867-1.376-2.464-.683-.619-1.654-.928-2.912-.928-1.088 0-2.006.277-2.752.832-.726.554-1.088 1.237-1.088 2.048 0 .853.33 1.557.992 2.112.682.533 1.717 1.024 3.104 1.472l1.76.512c1.194.362 2.25.821 3.168 1.376.938.533 1.664 1.237 2.176 2.112.533.874.8 2.005.8 3.392 0 1.493-.363 2.741-1.088 3.744-.704 1.002-1.664 1.77-2.88 2.304-1.195.512-2.518.768-3.968.768Zm22.003-.032c-1.685 0-3.04-.491-4.064-1.472-1.024-1.003-1.536-2.432-1.536-4.288v-8.064h-3.744v-2.976h3.744v-4.48h3.424v4.48h5.984v2.976h-5.984v7.744c0 .917.235 1.632.704 2.144.47.49 1.174.736 2.112.736.811 0 1.6-.214 2.368-.64l.992 2.88a6.7 6.7 0 0 1-1.728.704c-.576.17-1.333.256-2.272.256Zm15.508.032c-1.408 0-2.656-.342-3.744-1.024-1.088-.704-1.952-1.707-2.592-3.008-.619-1.302-.928-2.848-.928-4.64 0-1.814.32-3.36.96-4.64.64-1.302 1.514-2.294 2.624-2.976 1.109-.704 2.357-1.056 3.744-1.056 1.237 0 2.272.245 3.104.736.832.469 1.45 1.077 1.856 1.824h.192v-2.048h3.2v16.32h-3.2v-2.048h-.192c-.448.661-1.088 1.258-1.92 1.792-.811.512-1.846.768-3.104.768Zm.672-3.168c1.301 0 2.378-.47 3.232-1.408.874-.939 1.312-2.304 1.312-4.096 0-1.792-.438-3.158-1.312-4.096-.854-.939-1.931-1.408-3.232-1.408-1.302 0-2.39.469-3.264 1.408-.854.938-1.28 2.304-1.28 4.096 0 1.792.426 3.157 1.28 4.096.874.938 1.962 1.408 3.264 1.408Zm22.195 3.136c-1.685 0-3.04-.491-4.064-1.472-1.024-1.003-1.536-2.432-1.536-4.288v-8.064h-3.744v-2.976h3.744v-4.48h3.424v4.48h5.984v2.976h-5.984v7.744c0 .917.235 1.632.704 2.144.47.49 1.174.736 2.112.736.811 0 1.6-.214 2.368-.64l.992 2.88a6.7 6.7 0 0 1-1.728.704c-.576.17-1.333.256-2.272.256Zm16.468.032c-1.643 0-3.062-.363-4.256-1.088-1.174-.726-2.091-1.739-2.752-3.04-.64-1.302-.96-2.806-.96-4.512 0-1.728.33-3.243.992-4.544.682-1.323 1.621-2.347 2.816-3.072 1.216-.726 2.602-1.088 4.16-1.088 2.453 0 4.32.704 5.6 2.112 1.28 1.386 1.92 3.274 1.92 5.664 0 .576-.032 1.12-.096 1.632h-12.064c.106 1.578.586 2.784 1.44 3.616.874.832 1.984 1.248 3.328 1.248 1.088 0 1.952-.246 2.592-.736a4.308 4.308 0 0 0 1.376-1.888l2.976.8c-.448 1.472-1.27 2.656-2.464 3.552-1.174.896-2.71 1.344-4.608 1.344Zm0-14.464c-1.131 0-2.091.33-2.88.992-.79.661-1.323 1.653-1.6 2.976h8.64c-.064-1.195-.448-2.155-1.152-2.88-.704-.726-1.707-1.088-3.008-1.088Z" fill="#000"/><path d="M1066.76 647.151c0 1.105.89 2 2 2 1.1 0 2-.895 2-2h-4Zm2-276.772v-2h-2v2h2Zm223.92 1.415c.78-.781.78-2.048 0-2.829l-12.73-12.728a2.002 2.002 0 0 0-2.83 2.829l11.32 11.313-11.32 11.314a2.002 2.002 0 0 0 2.83 2.829l12.73-12.728Zm-221.92 275.357V370.379h-4v276.772h4Zm-2-274.772h222.5v-4h-222.5v4ZM1691.26 785.537v2h2v-2h-2Zm-241.01-1.414a2.001 2.001 0 0 0 0 2.828l12.73 12.728a2.001 2.001 0 0 0 2.83-2.828l-11.31-11.314 11.31-11.314a2.001 2.001 0 0 0-2.83-2.828l-12.73 12.728Zm1.42 3.414h5.44v-4h-5.44v4Zm16.33 0h10.89v-4H1468v4Zm21.78 0h10.89v-4h-10.89v4Zm21.79 0h10.89v-4h-10.89v4Zm21.78 0h10.89v-4h-10.89v4Zm21.78 0h10.89v-4h-10.89v4Zm21.78 0h10.89v-4h-10.89v4Zm21.78 0h10.89v-4h-10.89v4Zm21.78 0h10.89v-4h-10.89v4Zm21.78 0h10.89v-4h-10.89v4Zm21.78 0h10.89v-4h-10.89v4Zm21.78 0h5.45v-4h-5.45v4Zm7.45-2v-5.347h-4v5.347h4Zm0-16.04v-10.694h-4v10.694h4Zm0-21.387v-10.693h-4v10.693h4Zm0-21.387V716.03h-4v10.693h4Zm0-21.387v-10.693h-4v10.693h4Zm0-21.387v-10.693h-4v10.693h4Zm0-21.387v-10.693h-4v10.693h4Zm0-21.387v-10.693h-4v10.693h4Zm0-21.386v-10.694h-4v10.694h4Zm0-21.387v-10.694h-4v10.694h4Zm0-21.387v-10.694h-4v10.694h4Zm0-21.387v-10.694h-4v10.694h4Zm0-21.387v-10.694h-4v10.694h4Zm0-21.387v-10.693h-4v10.693h4Zm0-21.387v-10.693h-4v10.693h4Zm0-21.387v-5.347h-4v5.347h4Z" fill="#231E0E"/></svg>